<svg version="1.1" id="Bold" xmlns="http://www.w3.org/2000/svg" x="0" y="0" viewBox="0 0 512 512" xml:space="preserve"><style>.st0{fill:#fff}</style><path class="st0" d="M263.7 318.9c0-39.4-18.8-68.6-57.5-79.5 28.3-13.5 43-33.9 43-65.6 0-62.5-46.8-77.8-100.7-77.8H0v314h152.7c57.3 0 111-27.3 111-91.1zM69.2 149.6h65c25 0 47.5 7 47.5 35.9 0 26.7-17.5 37.4-42.2 37.4H69.2v-73.3zm0 207.1v-86.5h75.5c30.5 0 49.8 12.7 49.8 44.8 0 31.7-23 41.6-51.2 41.6H69.2zM401 416c54.5 0 89.8-24.5 106.8-76.5h-55.3c-6 19.4-30.5 29.7-49.5 29.7-36.7 0-56-21.4-56-57.9h164.5c5.2-72.9-35.4-135.1-110.5-135.1-69.5 0-116.7 52.1-116.7 120.3C284.2 367.4 329 416 401 416zm-2-192.6c31.5 0 47.3 18.4 49.9 48.6H347c2.1-29.9 22-48.6 52-48.6zM334.2 112.5H462v30.9H334.2v-30.9z"/></svg>