<svg version="1.1" id="Capa_1" xmlns="http://www.w3.org/2000/svg" x="0" y="0" viewBox="0 0 512 512" xml:space="preserve"><style>.st0{fill:#fff}</style><path class="st0" d="M256 0C114.8 0 0 114.8 0 256s114.8 256 256 256 256-114.8 256-256S397.2 0 256 0zm0 480C132.5 480 32 379.5 32 256S132.5 32 256 32s224 100.5 224 224-100.5 224-224 224z"/><path class="st0" d="M256 64c-13.4 0-26.6 1.4-39.2 4 23.3 33 44.4 67.4 63.1 103 35.2-16.4 68.4-37.6 98.7-62.9C345.2 80.6 302.6 64 256 64zM401.3 130.8c-32.9 27.7-69.2 50.8-107.6 68.7 8.4 17.5 16.2 35.3 23.5 53.3 42.5-8.7 86.7-9.5 130.6-2.3-1.4-45.7-18.6-87.4-46.5-119.7zM184.6 77.9C127 101 83.3 151.1 69.1 212.7c62.1 2.7 123.6-7.7 180.9-29.6-19.2-36.4-41-71.6-65.4-105.2zM264.3 212.1c-55.4 21.6-114.6 33.4-174.8 33.4-8.3 0-16.6-.5-24.9-1-.2 3.8-.6 7.6-.6 11.5 0 47.1 17.1 90.3 45.2 123.7 46.1-57.2 108.1-98.3 176.7-118.9-6.6-16.4-13.9-32.6-21.6-48.7zM328.9 283.1c15.3 42.6 27.2 86.3 36 130.9 43.3-29.9 73.5-77 81.1-131.5-39.3-6.9-78.9-6.5-117.1.6zM297.5 290.6C233 309.4 174.7 348.1 132 402.4c33.5 28.4 76.7 45.6 124 45.6 28.4 0 55.3-6.3 79.6-17.4-8.8-47.8-21.6-94.6-38.1-140z"/></svg>