<svg id="Layer_1" data-name="Layer 1" xmlns="http://www.w3.org/2000/svg" viewBox="0 0 25.95 15.35"><defs><style>.cls-1{fill:none;stroke:#fd204a;stroke-linecap:round;stroke-miterlimit:10;stroke-width:1.25px;}.cls-2{fill:#fd204a;}</style></defs><title>arrow-back</title><g id="Group_5" data-name="Group 5"><path id="Path_1" data-name="Path 1" class="cls-1" d="M668.43,381.29h19.2a4.91,4.91,0,0,1,4.9,4.9h0a4.92,4.92,0,0,1-4.9,4.9h-7.8" transform="translate(-667.2 -376.36)"/><g id="Group_1" data-name="Group 1"><path id="Path_2" data-name="Path 2" class="cls-2" d="M672.93,385.89h0a.75.75,0,0,0,0-.9l-3.6-3.3a.56.56,0,0,1-.11-.79.57.57,0,0,1,.11-.11l3.6-3.3a.56.56,0,0,0,.11-.79.57.57,0,0,0-.11-.11h0a.57.57,0,0,0-.79-.12.43.43,0,0,0-.11.12l-4.6,4.2a.55.55,0,0,0-.11.78.63.63,0,0,0,.11.12l4.6,4.2a.55.55,0,0,0,.78.11A.43.43,0,0,0,672.93,385.89Z" transform="translate(-667.2 -376.36)"/></g></g></svg>