<svg id="Layer_1" data-name="Layer 1" xmlns="http://www.w3.org/2000/svg" viewBox="0 0 24 24"><defs><style>.cls-1{fill:#1d2e3c;}</style></defs><title>twitter</title><path class="cls-1" d="M0,0V24H24V0ZM18.86,9.24A9.34,9.34,0,0,1,4.5,17.53a6.63,6.63,0,0,0,4.86-1.36,3.3,3.3,0,0,1-3.07-2.28,3.24,3.24,0,0,0,1.49-.06,3.29,3.29,0,0,1-2.64-3.26A3.13,3.13,0,0,0,6.63,11a3.28,3.28,0,0,1-1-4.38A9.32,9.32,0,0,0,12.38,10,3.28,3.28,0,0,1,18,7a6.62,6.62,0,0,0,2.09-.8,3.32,3.32,0,0,1-1.45,1.82,6.61,6.61,0,0,0,1.89-.52A6.79,6.79,0,0,1,18.86,9.24Z"/></svg>